<svg width="20" height="17" viewBox="0 0 20 17" fill="none" xmlns="http://www.w3.org/2000/svg">
<path d="M16.0044 0.019989H19.9887V14.0356C19.9887 14.5669 19.7856 15.0356 19.3794 15.4419C19.0044 15.8481 18.5512 16.0512 18.02 16.0512H1.98874C1.45749 16.0512 0.988739 15.8481 0.582489 15.4419C0.207489 15.0356 0.019989 14.5669 0.019989 14.0356V2.03561C0.019989 1.50436 0.207489 1.03561 0.582489 0.629364C0.988739 0.223114 1.45749 0.019989 1.98874 0.019989H3.01999L4.98874 4.05124H7.98874L6.01999 0.019989H7.98874L10.0044 4.05124H13.0044L10.9887 0.019989H13.0044L15.02 4.05124H18.02L16.0044 0.019989Z" fill="#FF5722"/>
</svg>
